<svg width="32" height="32" fill="none" xmlns="http://www.w3.org/2000/svg"><defs><clipPath id="a"><path fill="#fff" fill-opacity="0" d="M0 0h32v32H0z"/></clipPath></defs><path d="M0 0h32v32H0z"/><g clip-path="url(#a)"><path d="M25.01 8.658a21.309 21.309 0 00-5.292-1.657.081.081 0 00-.085.041c-.229.41-.482.945-.66 1.366a19.628 19.628 0 00-5.943 0 13.79 13.79 0 00-.67-1.366.084.084 0 00-.084-.041 21.254 21.254 0 00-5.293 1.657.073.073 0 00-.034.03c-3.371 5.082-4.295 10.04-3.842 14.935a.092.092 0 00.034.062 21.498 21.498 0 006.493 3.311c.033.01.07-.002.09-.03.5-.689.947-1.416 1.329-2.18a.084.084 0 00-.045-.116c-.707-.27-1.38-.6-2.028-.976a.084.084 0 01-.008-.138c.136-.104.272-.211.402-.32a.08.08 0 01.084-.01c4.255 1.96 8.862 1.96 13.067 0a.08.08 0 01.085.01c.13.108.266.216.404.32a.084.084 0 01-.007.138c-.648.383-1.322.705-2.03.975a.085.085 0 00-.044.117c.39.763.837 1.49 1.328 2.179.02.03.057.042.09.031a21.427 21.427 0 006.503-3.311.086.086 0 00.034-.061c.542-5.66-.908-10.576-3.844-14.935a.064.064 0 00-.034-.03zM11.688 20.642c-1.28 0-2.336-1.187-2.336-2.645 0-1.457 1.035-2.645 2.336-2.645 1.312 0 2.357 1.198 2.337 2.645 0 1.458-1.035 2.645-2.337 2.645zm8.64 0c-1.281 0-2.337-1.187-2.337-2.645 0-1.457 1.035-2.645 2.337-2.645 1.311 0 2.357 1.198 2.336 2.645 0 1.458-1.025 2.645-2.336 2.645z" fill="#9D9D9D"/></g></svg>