<svg width="32" height="32" fill="none" xmlns="http://www.w3.org/2000/svg"><defs><clipPath id="a"><path fill="#fff" fill-opacity="0" d="M0 0h32v32H0z"/></clipPath></defs><path d="M0 0h32v32H0z"/><g clip-path="url(#a)"><path d="M15.046 3C7.274 3 1 9.192 1 16.862c0 6.1 4.027 11.276 9.645 13.123.75.093.937-.277.937-.646v-2.403c-3.933.832-4.776-1.848-4.776-1.848-.656-1.571-1.592-2.033-1.592-2.033-1.311-.832.094-.832.094-.832 1.404.092 2.153 1.386 2.153 1.386 1.218 2.125 3.278 1.479 4.12 1.109.094-.924.469-1.479.937-1.849C9.428 22.5 6.15 21.3 6.15 16.03c0-1.478.562-2.772 1.405-3.696-.187-.37-.656-1.756.094-3.696 0 0 1.217-.37 3.839 1.385 1.124-.277 2.341-.461 3.558-.461 1.218 0 2.435.184 3.559.461 2.715-1.755 3.839-1.385 3.839-1.385.75 1.94.28 3.327.094 3.696.936.924 1.404 2.218 1.404 3.696 0 5.36-3.277 6.47-6.367 6.84.468.462.936 1.293.936 2.587v3.79c0 .37.281.831.937.647 5.618-1.85 9.551-7.025 9.551-13.123C29.093 9.191 22.819 3 15.046 3z" fill="#9D9D9D" fill-rule="evenodd"/></g></svg>