<?xml version="1.0" encoding="utf-8"?><svg viewBox="0 0 141 32" xmlns="http://www.w3.org/2000/svg" xmlns:xlink="http://www.w3.org/1999/xlink"><style>:root>svg{display:none}:root>svg:target{display:block}</style><svg fill="none" viewBox="0 0 141 20" id="Frame" xmlns="http://www.w3.org/2000/svg"><g clip-path="url(#ba)" fill="#fff"><path fill-rule="evenodd" clip-rule="evenodd" d="M0 19.958h19.916V.042H0v19.916zm17.88-2.037V2.08H2.037v15.84H17.88z"/><path d="M40.55 11.753h-2.145c-.312 1.944-1.613 3.062-3.41 3.062-2.384 0-3.942-1.852-3.942-4.804 0-2.915 1.503-4.803 3.814-4.803 1.87 0 3.098 1.1 3.447 3.08h2.145c-.422-2.897-2.75-4.786-5.666-4.786-3.502 0-5.922 2.897-5.922 6.51 0 3.721 2.475 6.508 5.977 6.508 2.916 0 5.262-1.87 5.703-4.767z"/><path fill-rule="evenodd" clip-rule="evenodd" d="M50.394 11.753c0-2.475-1.705-4.767-4.492-4.767s-4.492 2.292-4.492 4.767c0 2.476 1.705 4.767 4.492 4.767s4.492-2.291 4.492-4.767zm-6.876 0c0-1.962.862-3.282 2.384-3.282 1.54 0 2.402 1.32 2.402 3.282 0 1.944-.862 3.282-2.402 3.282-1.522 0-2.384-1.338-2.384-3.282zm14.675 2.659h-.055c-.44 1.265-1.503 2.108-2.897 2.108-2.494 0-3.85-2.2-3.85-4.767s1.411-4.767 3.85-4.767c1.394 0 2.457.825 2.897 2.09h.055v-5.39h1.962v12.651h-1.962v-1.925zm-2.31-5.94c-1.522 0-2.384 1.32-2.384 3.281 0 1.944.862 3.282 2.384 3.282 1.54 0 2.383-1.338 2.383-3.282 0-1.962-.843-3.282-2.383-3.282zm14.135 5.023H68.02c-.22.734-.734 1.54-1.925 1.54-1.394 0-2.365-.972-2.457-2.64h6.545c.275-3.19-1.521-5.409-4.253-5.409s-4.29 2.237-4.29 4.767c0 2.53 1.594 4.767 4.326 4.767 2.237 0 3.667-1.21 4.052-3.025zM65.93 8.471c1.338 0 2.127.954 2.255 2.439h-4.529c.129-1.485.935-2.439 2.274-2.439z"/><path d="M77.92 9.058c2.383.55 3.575 1.797 3.575 3.795 0 2.109-2.053 3.667-4.987 3.667-3.355 0-5.17-2.346-5.372-4.638h2.145c.128 1.65 1.467 2.933 3.245 2.933 1.614 0 2.806-.697 2.806-1.87 0-1.027-.77-1.577-2.402-1.962l-1.834-.421c-2.475-.587-3.703-1.742-3.703-3.503 0-2.126 2.09-3.557 4.638-3.557 3.227 0 4.877 1.76 5.097 3.943h-2.145c-.165-1.504-1.43-2.237-2.915-2.237-1.448 0-2.494.623-2.494 1.705 0 .862.642 1.265 2.512 1.705l1.834.44z"/><path fill-rule="evenodd" clip-rule="evenodd" d="M89.207 14.412h.056v1.925h1.961V7.17h-1.962v1.907h-.055c-.44-1.265-1.503-2.09-2.897-2.09-2.438 0-3.85 2.2-3.85 4.767s1.357 4.767 3.85 4.767c1.394 0 2.457-.843 2.897-2.108zm-4.638-2.659c0-1.962.88-3.282 2.365-3.282 1.485 0 2.402 1.32 2.402 3.282 0 1.944-.917 3.282-2.402 3.282-1.467 0-2.365-1.338-2.365-3.282z"/><path d="M95.22 10.836v5.501h-1.998V7.17h1.944v1.797h.036c.385-1.283 1.339-1.98 2.677-1.98 2.017 0 3.007 1.375 3.007 3.392v5.96h-1.998v-5.373c0-1.705-.605-2.475-1.834-2.475-1.228 0-1.833.843-1.833 2.346z"/><path fill-rule="evenodd" clip-rule="evenodd" d="M109.061 14.412h.055v1.925h1.962V3.686h-1.962v5.39h-.055c-.44-1.265-1.504-2.09-2.897-2.09-2.439 0-3.851 2.2-3.851 4.767s1.357 4.767 3.851 4.767c1.393 0 2.457-.843 2.897-2.108zm-4.639-2.659c0-1.962.862-3.282 2.384-3.282 1.54 0 2.383 1.32 2.383 3.282 0 1.944-.843 3.282-2.383 3.282-1.522 0-2.384-1.338-2.384-3.282zm13.567-4.767c2.439 0 3.851 2.2 3.851 4.767s-1.357 4.767-3.851 4.767c-1.393 0-2.457-.843-2.897-2.108h-.055v1.925h-1.961V3.686h1.961v5.39h.055c.44-1.265 1.504-2.09 2.897-2.09zm-.641 1.485c-1.54 0-2.384 1.32-2.384 3.282 0 1.944.844 3.282 2.384 3.282 1.522 0 2.383-1.338 2.383-3.282 0-1.962-.861-3.282-2.383-3.282zm14.483 3.282c0-2.475-1.705-4.767-4.492-4.767s-4.492 2.292-4.492 4.767c0 2.476 1.705 4.767 4.492 4.767s4.492-2.291 4.492-4.767zm-6.875 0c0-1.962.861-3.282 2.383-3.282 1.54 0 2.402 1.32 2.402 3.282 0 1.944-.862 3.282-2.402 3.282-1.522 0-2.383-1.338-2.383-3.282z"/><path d="m136.306 12.78-2.439 3.557h-2.255l3.52-4.932-3.062-4.235h2.255l1.981 2.86 1.98-2.86h2.237l-3.044 4.217 3.502 4.95h-2.237l-2.438-3.557z"/></g><defs><clipPath id="ba"><path fill="#fff" d="M0 0h141v20H0z"/></clipPath></defs></svg><svg fill="none" viewBox="0 0 32 32" id="discord" xmlns="http://www.w3.org/2000/svg"><defs><clipPath id="aa"><path fill="#fff" fill-opacity="0" d="M0 0h32v32H0z"/></clipPath></defs><path d="M0 0h32v32H0z"/><g clip-path="url(#aa)"><path d="M25.01 8.658a21.309 21.309 0 0 0-5.292-1.657.081.081 0 0 0-.085.041c-.229.41-.482.945-.66 1.366a19.628 19.628 0 0 0-5.943 0 13.79 13.79 0 0 0-.67-1.366.084.084 0 0 0-.084-.041 21.254 21.254 0 0 0-5.293 1.657.073.073 0 0 0-.034.03c-3.371 5.082-4.295 10.04-3.842 14.935a.092.092 0 0 0 .034.062 21.498 21.498 0 0 0 6.493 3.311c.033.01.07-.002.09-.03.5-.689.947-1.416 1.329-2.18a.084.084 0 0 0-.045-.116c-.707-.27-1.38-.6-2.028-.976a.084.084 0 0 1-.008-.138c.136-.104.272-.211.402-.32a.08.08 0 0 1 .084-.01c4.255 1.96 8.862 1.96 13.067 0a.08.08 0 0 1 .085.01c.13.108.266.216.404.32a.084.084 0 0 1-.007.138c-.648.383-1.322.705-2.03.975a.085.085 0 0 0-.044.117c.39.763.837 1.49 1.328 2.179.02.03.057.042.09.031a21.427 21.427 0 0 0 6.503-3.311.086.086 0 0 0 .034-.061c.542-5.66-.908-10.576-3.844-14.935a.064.064 0 0 0-.034-.03zM11.688 20.642c-1.28 0-2.336-1.187-2.336-2.645 0-1.457 1.035-2.645 2.336-2.645 1.312 0 2.357 1.198 2.337 2.645 0 1.458-1.035 2.645-2.337 2.645zm8.64 0c-1.281 0-2.337-1.187-2.337-2.645 0-1.457 1.035-2.645 2.337-2.645 1.311 0 2.357 1.198 2.336 2.645 0 1.458-1.025 2.645-2.336 2.645z" fill="#9D9D9D"/></g></svg><svg fill="none" viewBox="0 0 32 32" id="github" xmlns="http://www.w3.org/2000/svg"><defs><clipPath id="ca"><path fill="#fff" fill-opacity="0" d="M0 0h32v32H0z"/></clipPath></defs><path d="M0 0h32v32H0z"/><g clip-path="url(#ca)"><path d="M15.046 3C7.274 3 1 9.192 1 16.862c0 6.1 4.027 11.276 9.645 13.123.75.093.937-.277.937-.646v-2.403c-3.933.832-4.776-1.848-4.776-1.848-.656-1.571-1.592-2.033-1.592-2.033-1.311-.832.094-.832.094-.832 1.404.092 2.153 1.386 2.153 1.386 1.218 2.125 3.278 1.479 4.12 1.109.094-.924.469-1.479.937-1.849C9.428 22.5 6.15 21.3 6.15 16.03c0-1.478.562-2.772 1.405-3.696-.187-.37-.656-1.756.094-3.696 0 0 1.217-.37 3.839 1.385 1.124-.277 2.341-.461 3.558-.461 1.218 0 2.435.184 3.559.461 2.715-1.755 3.839-1.385 3.839-1.385.75 1.94.28 3.327.094 3.696.936.924 1.404 2.218 1.404 3.696 0 5.36-3.277 6.47-6.367 6.84.468.462.936 1.293.936 2.587v3.79c0 .37.281.831.937.647 5.618-1.85 9.551-7.025 9.551-13.123C29.093 9.191 22.819 3 15.046 3z" fill="#9D9D9D" fill-rule="evenodd"/></g></svg><svg fill="none" viewBox="0 0 32 32" id="twitter" xmlns="http://www.w3.org/2000/svg"><defs><clipPath id="da"><path fill="#fff" fill-opacity="0" d="M0 0h32v32H0z"/></clipPath></defs><path d="M0 0h32v32H0z"/><g clip-path="url(#da)"><path d="M29 8.486c-.956.421-1.985.706-3.064.834a5.321 5.321 0 0 0 2.346-2.932 10.712 10.712 0 0 1-3.388 1.286A5.342 5.342 0 0 0 21.001 6c-2.946 0-5.335 2.374-5.335 5.302 0 .415.048.82.139 1.208A15.179 15.179 0 0 1 4.81 6.97a5.29 5.29 0 0 0 1.65 7.077 5.332 5.332 0 0 1-2.415-.662v.067c0 2.568 1.838 4.711 4.278 5.198a5.374 5.374 0 0 1-2.409.091 5.335 5.335 0 0 0 4.983 3.682 10.745 10.745 0 0 1-6.625 2.27c-.43 0-.855-.026-1.272-.075A15.169 15.169 0 0 0 11.177 27c9.811 0 15.177-8.078 15.177-15.084 0-.23-.005-.459-.016-.686A10.824 10.824 0 0 0 29 8.486z" fill="#9D9D9D"/></g></svg></svg>