<svg width="32" height="32" fill="none" xmlns="http://www.w3.org/2000/svg"><defs><clipPath id="a"><path fill="#fff" fill-opacity="0" d="M0 0h32v32H0z"/></clipPath></defs><path d="M0 0h32v32H0z"/><g clip-path="url(#a)"><path d="M29 8.486c-.956.421-1.985.706-3.064.834a5.321 5.321 0 002.346-2.932 10.712 10.712 0 01-3.388 1.286A5.342 5.342 0 0021.001 6c-2.946 0-5.335 2.374-5.335 5.302 0 .415.048.82.139 1.208A15.179 15.179 0 014.81 6.97a5.29 5.29 0 001.65 7.077 5.332 5.332 0 01-2.415-.662v.067c0 2.568 1.838 4.711 4.278 5.198a5.374 5.374 0 01-2.409.091 5.335 5.335 0 004.983 3.682 10.745 10.745 0 01-6.625 2.27c-.43 0-.855-.026-1.272-.075A15.169 15.169 0 0011.177 27c9.811 0 15.177-8.078 15.177-15.084 0-.23-.005-.459-.016-.686A10.824 10.824 0 0029 8.486z" fill="#9D9D9D"/></g></svg>