<svg width="32.000000" height="32.000000" viewBox="0 0 32 32" fill="none" xmlns="http://www.w3.org/2000/svg" xmlns:xlink="http://www.w3.org/1999/xlink">
	<desc>
			Created with Pixso.
	</desc>
	<defs>
		<clipPath id="clip1_681">
			<rect id="Frame" width="32.000000" height="32.000000" fill="white" fill-opacity="0"/>
		</clipPath>
	</defs>
	<rect id="Frame" width="32.000000" height="32.000000" fill="#FFFFFF" fill-opacity="0"/>
	<g clip-path="url(#clip1_681)">
		<path id="Vector" d="M25.0101 8.6582C23.3529 7.89062 21.5759 7.3252 19.7179 7.00098C19.6841 6.99512 19.6503 7.01074 19.6328 7.04199C19.4043 7.45215 19.1511 7.9873 18.9739 8.4082C16.9754 8.10645 14.9873 8.10645 13.0298 8.4082C12.8525 7.97754 12.5902 7.45215 12.3606 7.04199C12.3432 7.01172 12.3094 6.99609 12.2756 7.00098C10.4186 7.32422 8.64154 7.88965 6.98334 8.6582C6.96899 8.66406 6.95667 8.6748 6.94855 8.68848C3.57782 13.7705 2.65448 18.7275 3.10742 23.623C3.1095 23.6465 3.1228 23.6699 3.14124 23.6846C5.36511 25.332 7.51935 26.333 9.63354 26.9961C9.66736 27.0068 9.70325 26.9941 9.72479 26.9658C10.2249 26.2773 10.6707 25.5498 11.0529 24.7861C11.0755 24.7412 11.054 24.6885 11.0079 24.6699C10.3007 24.3994 9.62738 24.0693 8.97974 23.6943C8.92847 23.665 8.92438 23.5908 8.9715 23.5557C9.10779 23.4521 9.24414 23.3447 9.37427 23.2363C9.39783 23.2168 9.43066 23.2129 9.45831 23.2256C13.7134 25.1855 18.32 25.1855 22.5249 23.2256C22.5525 23.2119 22.5854 23.2158 22.6099 23.2354C22.7401 23.3438 22.8764 23.4521 23.0137 23.5557C23.0609 23.5908 23.0578 23.665 23.0066 23.6943C22.3589 24.0771 21.6855 24.3994 20.9774 24.6689C20.9313 24.6865 20.9108 24.7412 20.9333 24.7861C21.3238 25.5488 21.7696 26.2764 22.2605 26.9648C22.281 26.9941 22.3179 27.0068 22.3517 26.9961C24.4761 26.333 26.6303 25.332 28.8542 23.6846C28.8737 23.6699 28.886 23.6475 28.8881 23.624C29.4302 17.9639 27.98 13.0479 25.0439 8.68945C25.0367 8.6748 25.0245 8.66406 25.0101 8.6582ZM11.6884 20.6416C10.4073 20.6416 9.35175 19.4551 9.35175 17.9971C9.35175 16.54 10.3868 15.3525 11.6884 15.3525C13.0001 15.3525 14.0455 16.5498 14.025 17.9971C14.025 19.4551 12.9899 20.6416 11.6884 20.6416ZM20.3276 20.6416C19.0466 20.6416 17.991 19.4551 17.991 17.9971C17.991 16.54 19.0261 15.3525 20.3276 15.3525C21.6394 15.3525 22.6847 16.5498 22.6643 17.9971C22.6643 19.4551 21.6394 20.6416 20.3276 20.6416Z" fill="#9D9D9D" fill-opacity="1.000000" fill-rule="nonzero"/>
	</g>
</svg>
