<svg width="32.000000" height="32.000000" viewBox="0 0 32 32" fill="none" xmlns="http://www.w3.org/2000/svg" xmlns:xlink="http://www.w3.org/1999/xlink">
	<desc>
			Created with Pixso.
	</desc>
	<defs>
		<clipPath id="clip1_677">
			<rect id="Frame" width="32.000000" height="32.000000" fill="white" fill-opacity="0"/>
		</clipPath>
	</defs>
	<rect id="Frame" width="32.000000" height="32.000000" fill="#FFFFFF" fill-opacity="0"/>
	<g clip-path="url(#clip1_677)">
		<path id="Vector" d="M15.0463 3C7.27399 3 1 9.19238 1 16.8623C1 22.9619 5.02661 28.1377 10.6451 29.9854C11.3943 30.0781 11.5815 29.708 11.5815 29.3389L11.5815 26.9355C7.64856 27.7676 6.80579 25.0879 6.80579 25.0879C6.15033 23.5166 5.21387 23.0547 5.21387 23.0547C3.90289 22.2227 5.30756 22.2227 5.30756 22.2227C6.71216 22.3154 7.4613 23.6094 7.4613 23.6094C8.67865 25.7344 10.7388 25.0879 11.5815 24.7178C11.6752 23.7939 12.0498 23.2393 12.518 22.8691C9.4278 22.5 6.15033 21.2988 6.15033 16.0303C6.15033 14.5518 6.71216 13.2578 7.55493 12.334C7.36768 11.9648 6.89948 10.5781 7.64856 8.6377C7.64856 8.6377 8.86591 8.26758 11.4879 10.0234C12.6116 9.74609 13.829 9.56152 15.0463 9.56152C16.2636 9.56152 17.481 9.74609 18.6047 10.0234C21.3203 8.26758 22.444 8.6377 22.444 8.6377C23.1932 10.5781 22.7249 11.9648 22.5377 12.334C23.4741 13.2578 23.9423 14.5518 23.9423 16.0303C23.9423 21.3906 20.6648 22.5 17.5746 22.8691C18.0428 23.332 18.5111 24.1631 18.5111 25.457L18.5111 29.2461C18.5111 29.6162 18.792 30.0781 19.4475 29.8936C25.066 28.0449 28.999 22.8691 28.999 16.7705C29.0926 9.19238 22.8186 3 15.0463 3Z" fill="#9D9D9D" fill-opacity="1.000000" fill-rule="evenodd"/>
	</g>
</svg>
