<svg width="32.000000" height="32.000000" viewBox="0 0 32 32" fill="none" xmlns="http://www.w3.org/2000/svg" xmlns:xlink="http://www.w3.org/1999/xlink">
	<desc>
			Created with Pixso.
	</desc>
	<defs>
		<clipPath id="clip1_679">
			<rect id="Frame" width="32.000000" height="32.000000" fill="white" fill-opacity="0"/>
		</clipPath>
	</defs>
	<rect id="Frame" width="32.000000" height="32.000000" fill="#FFFFFF" fill-opacity="0"/>
	<g clip-path="url(#clip1_679)">
		<path id="Vector" d="M29 8.48633C28.0435 8.90723 27.0153 9.19238 25.9364 9.32031C27.0376 8.66406 27.8836 7.62598 28.2817 6.3877C27.251 6.99512 26.1094 7.43652 24.8943 7.67383C23.9214 6.64355 22.5351 6 21.0008 6C18.055 6 15.6665 8.37402 15.6665 11.3018C15.6665 11.7168 15.7137 12.1211 15.8047 12.5098C11.3715 12.2881 7.44104 10.1777 4.81006 6.9707C4.35089 7.75293 4.08783 8.66406 4.08783 9.63574C4.08783 11.4746 5.02954 13.0977 6.46082 14.0479C5.58643 14.0205 4.76392 13.7822 4.0448 13.3848C4.04419 13.4072 4.04419 13.4297 4.04419 13.4521C4.04419 16.0205 5.88287 18.1631 8.32312 18.6504C7.87555 18.7715 7.4043 18.8359 6.91779 18.8359C6.5741 18.8359 6.23999 18.8027 5.91425 18.7412C6.59308 20.8477 8.56299 22.3799 10.8973 22.4229C9.07166 23.8447 6.77173 24.6924 4.27246 24.6924C3.84186 24.6924 3.4173 24.667 3 24.6182C5.36066 26.1221 8.16455 27 11.1769 27C20.9884 27 26.3539 18.9219 26.3539 11.916C26.3539 11.6865 26.3487 11.457 26.3384 11.2305C27.3805 10.4824 28.2848 9.54883 28.9999 8.48633L29 8.48633Z" fill="#9D9D9D" fill-opacity="1.000000" fill-rule="nonzero"/>
	</g>
</svg>
